<?xml version="1.0" encoding="utf-8"?>
<!-- Generator: Adobe Illustrator 24.1.2, SVG Export Plug-In . SVG Version: 6.00 Build 0)  -->
<svg version="1.1" id="Capa_1" xmlns="http://www.w3.org/2000/svg" xmlns:xlink="http://www.w3.org/1999/xlink" x="0px" y="0px"
	 viewBox="0 0 512 290.9" style="enable-background:new 0 0 512 290.9;" xml:space="preserve">
<style type="text/css">
	.st0{fill:#FFC107;}
	.st1{fill:#F44336;}
	.st2{fill:#FAFAFA;}
	.st3{fill:#455A64;}
</style>
<g>
	<path class="st0" d="M128,50c0-8.8-7.2-16-16-16H16C7.2,34,0,41.2,0,50s7.2,16,16,16h96C120.8,66,128,58.8,128,50z"/>
	<path class="st0" d="M112,98H48c-8.8,0-16,7.2-16,16s7.2,16,16,16h64c8.8,0,16-7.2,16-16S120.8,98,112,98z"/>
	<path class="st0" d="M112,162H80c-8.8,0-16,7.2-16,16s7.2,16,16,16h32c8.8,0,16-7.2,16-16S120.8,162,112,162z"/>
</g>
<path class="st1" d="M509.7,153.8l-48-80C458.8,69,453.6,66,448,66H336c-8.8,0-16,7.2-16,16v160c0,8.8,7.2,16,16,16h160
	c8.8,0,16-7.2,16-16v-80C512,159.1,511.2,156.2,509.7,153.8z"/>
<polygon class="st2" points="384,98 438.9,98 477.3,162 384,162 "/>
<path class="st0" d="M336,2H112c-8.8,0-16,7.2-16,16v224c0,8.8,7.2,16,16,16h240V18C352,9.2,344.8,2,336,2z"/>
<circle class="st2" cx="432" cy="242" r="32"/>
<path class="st3" d="M432,290c-26.5,0-48-21.5-48-48s21.5-48,48-48s48,21.5,48,48S458.5,290,432,290z M432,226c-8.8,0-16,7.2-16,16
	s7.2,16,16,16s16-7.2,16-16S440.8,226,432,226z"/>
<path class="st1" d="M352,258H112c-8.8,0-16-7.2-16-16v-48h256V258z"/>
<circle class="st2" cx="208" cy="242" r="32"/>
<path class="st3" d="M208,290c-26.5,0-48-21.5-48-48s21.5-48,48-48s48,21.5,48,48S234.5,290,208,290z M208,226c-8.8,0-16,7.2-16,16
	s7.2,16,16,16s16-7.2,16-16S216.8,226,208,226z"/>
</svg>
