<svg xmlns="http://www.w3.org/2000/svg" width="400.758" height="255.7" viewBox="0 0 400.758 255.7"><path fill="#ffcb01" d="M0,0H400.758V255.7H0Z" data-name="Path 3150"/><g data-name="Group 1490" transform="translate(6.158 97.345)"><path fill="#d80613" d="M19.686,11.413,7.276,28.275H74.913c3.42,0,3.378,1.288,1.706,3.565-1.7,2.3-4.538,6.286-6.269,8.632-.879,1.186-2.465,3.343,2.789,3.343H100.8L109,32.677c5.083-6.9.444-21.255-17.732-21.255l-71.578-.009Z" data-name="Path 3151" transform="translate(48.625 -11.413)"/><path fill="#d80613" d="M51.6,66.35,76.53,32.472h30.936c3.42,0,3.378,1.3,1.706,3.565l-6.312,8.6c-.879,1.186-2.465,3.343,2.789,3.343h41.435C143.648,52.7,132.457,66.35,112.4,66.35ZM194.363,47.97,180.844,66.35H145.183L158.7,47.97Zm54.622-4.162H161.772L185.62,11.413h35.644L207.6,29.99h15.907l13.681-18.577h35.644Zm-3.062,4.162L232.4,66.35H196.76L210.278,47.97ZM.722,55.22H53.245l-2.866,3.9H.722Zm0-7.25H58.585l-2.874,3.9H.722Zm0,14.5H47.915L45.057,66.35H.722Zm388.45-3.352H336.836l2.874-3.9h49.461Zm0,7.233h-57.65l2.849-3.881h54.8ZM345.042,47.97h44.131v3.906h-47ZM322.2,11.413,298.352,43.807H260.576l23.865-32.394ZM257.522,47.97s-2.6,3.565-3.872,5.271c-4.469,6.056-.52,13.1,14.09,13.1h57.249L338.508,47.97H257.522Z" data-name="Path 3152" transform="translate(-.722 -11.413)"/></g></svg>